<?xml version="1.0" encoding="UTF-8" standalone="no"?>
<svg width="16px" height="16px" viewBox="0 0 16 16" version="1.1" xmlns="http://www.w3.org/2000/svg" xmlns:xlink="http://www.w3.org/1999/xlink">
    <!-- Generator: Sketch 42 (36781) - http://www.bohemiancoding.com/sketch -->
    <title>play</title>
    <desc>Created with Sketch.</desc>
    <defs></defs>
    <g id="Mobile" stroke="none" stroke-width="1" fill="none" fill-rule="evenodd">
        <g id="Language-Page-Mobile" transform="translate(-29.000000, -2419.000000)" fill="#ffffff">
            <g id="play" transform="translate(29.000000, 2419.000000)">
                <g id="noun_860179_8BC732">
                    <path d="M8,0 C3.6,0 0,3.6 0,8 C0,12.4 3.6,16 8,16 C12.4,16 16,12.4 16,8 C16,3.6 12.4,0 8,0 Z M11.7777778,8.31111111 L6.31111111,11.4222222 C6.22222222,11.4666667 6.15555556,11.5111111 6.04444444,11.5111111 C5.93333333,11.5111111 5.8,11.4666667 5.73333333,11.4222222 C5.57777778,11.3111111 5.46666667,11.1111111 5.46666667,10.9111111 L5.46666667,4.68888889 C5.46666667,4.48888889 5.55555556,4.28888889 5.73333333,4.17777778 C5.93333333,4.06666667 6.13333333,4.06666667 6.31111111,4.17777778 L11.7777778,7.28888889 C11.9777778,7.4 12.0888889,7.6 12.0888889,7.8 C12.0888889,8 11.9777778,8.2 11.7777778,8.31111111 Z" id="Shape" fill-rule="nonzero"></path>
                </g>
            </g>
        </g>
    </g>
</svg>
